<svg xmlns="http://www.w3.org/2000/svg" width="1024" height="1024" viewBox="0 0 1024 1024"><defs>
<radialGradient id="bg" cx="50%" cy="46%" r="70%"><stop offset="0" stop-color="#2c2c2c"/><stop offset="1" stop-color="#0c0c0c"/></radialGradient>
<linearGradient id="phosphor" x1="0" y1="0" x2="0" y2="1"><stop offset="0" stop-color="#ffffff"/><stop offset="1" stop-color="#e4e4e4"/></linearGradient>
<filter id="bloomWide" x="-50%" y="-50%" width="200%" height="200%"><feGaussianBlur stdDeviation="46"/></filter>
<filter id="bloomTight" x="-50%" y="-50%" width="200%" height="200%"><feGaussianBlur stdDeviation="14"/></filter>
<pattern id="scan" width="8" height="8" patternUnits="userSpaceOnUse"><rect width="8" height="3" fill="#000" opacity="0.22"/></pattern>
<radialGradient id="vignette" cx="50%" cy="50%" r="72%"><stop offset="0.55" stop-color="#000" stop-opacity="0"/><stop offset="1" stop-color="#000" stop-opacity="0.55"/></radialGradient>
</defs>
<rect width="1024" height="1024" fill="url(#bg)"/>
<rect x="318.0" y="-2.0" width="68" height="68" rx="11.3" fill="#ffffff" opacity="0.010"/><rect x="398.0" y="-2.0" width="68" height="68" rx="11.3" fill="#ffffff" opacity="0.016"/><rect x="478.0" y="-2.0" width="68" height="68" rx="11.3" fill="#ffffff" opacity="0.018"/><rect x="558.0" y="-2.0" width="68" height="68" rx="11.3" fill="#ffffff" opacity="0.016"/><rect x="638.0" y="-2.0" width="68" height="68" rx="11.3" fill="#ffffff" opacity="0.010"/><rect x="158.0" y="78.0" width="68" height="68" rx="11.3" fill="#ffffff" opacity="0.009"/><rect x="238.0" y="78.0" width="68" height="68" rx="11.3" fill="#ffffff" opacity="0.021"/><rect x="318.0" y="78.0" width="68" height="68" rx="11.3" fill="#ffffff" opacity="0.031"/><rect x="398.0" y="78.0" width="68" height="68" rx="11.3" fill="#ffffff" opacity="0.037"/><rect x="478.0" y="78.0" width="68" height="68" rx="11.3" fill="#ffffff" opacity="0.039"/><rect x="558.0" y="78.0" width="68" height="68" rx="11.3" fill="#ffffff" opacity="0.037"/><rect x="638.0" y="78.0" width="68" height="68" rx="11.3" fill="#ffffff" opacity="0.031"/><rect x="718.0" y="78.0" width="68" height="68" rx="11.3" fill="#ffffff" opacity="0.021"/><rect x="798.0" y="78.0" width="68" height="68" rx="11.3" fill="#ffffff" opacity="0.009"/><rect x="78.0" y="158.0" width="68" height="68" rx="11.3" fill="#ffffff" opacity="0.009"/><rect x="158.0" y="158.0" width="68" height="68" rx="11.3" fill="#ffffff" opacity="0.025"/><rect x="238.0" y="158.0" width="68" height="68" rx="11.3" fill="#ffffff" opacity="0.039"/><rect x="318.0" y="158.0" width="68" height="68" rx="11.3" fill="#ffffff" opacity="0.051"/><rect x="398.0" y="158.0" width="68" height="68" rx="11.3" fill="#ffffff" opacity="0.059"/><rect x="478.0" y="158.0" width="68" height="68" rx="11.3" fill="#ffffff" opacity="0.061"/><rect x="558.0" y="158.0" width="68" height="68" rx="11.3" fill="#ffffff" opacity="0.059"/><rect x="638.0" y="158.0" width="68" height="68" rx="11.3" fill="#ffffff" opacity="0.051"/><rect x="718.0" y="158.0" width="68" height="68" rx="11.3" fill="#ffffff" opacity="0.039"/><rect x="798.0" y="158.0" width="68" height="68" rx="11.3" fill="#ffffff" opacity="0.025"/><rect x="878.0" y="158.0" width="68" height="68" rx="11.3" fill="#ffffff" opacity="0.009"/><rect x="78.0" y="238.0" width="68" height="68" rx="11.3" fill="#ffffff" opacity="0.021"/><rect x="158.0" y="238.0" width="68" height="68" rx="11.3" fill="#ffffff" opacity="0.039"/><rect x="238.0" y="238.0" width="68" height="68" rx="11.3" fill="#ffffff" opacity="0.110"/><rect x="318.0" y="238.0" width="68" height="68" rx="11.3" fill="#ffffff" opacity="0.110"/><rect x="398.0" y="238.0" width="68" height="68" rx="11.3" fill="#ffffff" opacity="0.110"/><rect x="478.0" y="238.0" width="68" height="68" rx="11.3" fill="#ffffff" opacity="0.110"/><rect x="558.0" y="238.0" width="68" height="68" rx="11.3" fill="#ffffff" opacity="0.110"/><rect x="638.0" y="238.0" width="68" height="68" rx="11.3" fill="#ffffff" opacity="0.110"/><rect x="718.0" y="238.0" width="68" height="68" rx="11.3" fill="#ffffff" opacity="0.110"/><rect x="798.0" y="238.0" width="68" height="68" rx="11.3" fill="#ffffff" opacity="0.039"/><rect x="878.0" y="238.0" width="68" height="68" rx="11.3" fill="#ffffff" opacity="0.021"/><rect x="-2.0" y="318.0" width="68" height="68" rx="11.3" fill="#ffffff" opacity="0.010"/><rect x="78.0" y="318.0" width="68" height="68" rx="11.3" fill="#ffffff" opacity="0.031"/><rect x="158.0" y="318.0" width="68" height="68" rx="11.3" fill="#ffffff" opacity="0.051"/><rect x="238.0" y="318.0" width="68" height="68" rx="11.3" fill="#ffffff" opacity="0.110"/><rect x="318.0" y="318.0" width="68" height="68" rx="11.3" fill="#ffffff" opacity="0.110"/><rect x="478.0" y="318.0" width="68" height="68" rx="11.3" fill="#ffffff" opacity="0.110"/><rect x="558.0" y="318.0" width="68" height="68" rx="11.3" fill="#ffffff" opacity="0.110"/><rect x="638.0" y="318.0" width="68" height="68" rx="11.3" fill="#ffffff" opacity="0.110"/><rect x="718.0" y="318.0" width="68" height="68" rx="11.3" fill="#ffffff" opacity="0.110"/><rect x="798.0" y="318.0" width="68" height="68" rx="11.3" fill="#ffffff" opacity="0.051"/><rect x="878.0" y="318.0" width="68" height="68" rx="11.3" fill="#ffffff" opacity="0.031"/><rect x="958.0" y="318.0" width="68" height="68" rx="11.3" fill="#ffffff" opacity="0.010"/><rect x="-2.0" y="398.0" width="68" height="68" rx="11.3" fill="#ffffff" opacity="0.016"/><rect x="78.0" y="398.0" width="68" height="68" rx="11.3" fill="#ffffff" opacity="0.037"/><rect x="158.0" y="398.0" width="68" height="68" rx="11.3" fill="#ffffff" opacity="0.059"/><rect x="238.0" y="398.0" width="68" height="68" rx="11.3" fill="#ffffff" opacity="0.110"/><rect x="318.0" y="398.0" width="68" height="68" rx="11.3" fill="#ffffff" opacity="0.110"/><rect x="478.0" y="398.0" width="68" height="68" rx="11.3" fill="#ffffff" opacity="0.110"/><rect x="718.0" y="398.0" width="68" height="68" rx="11.3" fill="#ffffff" opacity="0.110"/><rect x="798.0" y="398.0" width="68" height="68" rx="11.3" fill="#ffffff" opacity="0.059"/><rect x="878.0" y="398.0" width="68" height="68" rx="11.3" fill="#ffffff" opacity="0.037"/><rect x="958.0" y="398.0" width="68" height="68" rx="11.3" fill="#ffffff" opacity="0.016"/><rect x="-2.0" y="478.0" width="68" height="68" rx="11.3" fill="#ffffff" opacity="0.018"/><rect x="78.0" y="478.0" width="68" height="68" rx="11.3" fill="#ffffff" opacity="0.039"/><rect x="158.0" y="478.0" width="68" height="68" rx="11.3" fill="#ffffff" opacity="0.061"/><rect x="238.0" y="478.0" width="68" height="68" rx="11.3" fill="#ffffff" opacity="0.110"/><rect x="318.0" y="478.0" width="68" height="68" rx="11.3" fill="#ffffff" opacity="0.110"/><rect x="398.0" y="478.0" width="68" height="68" rx="11.3" fill="#ffffff" opacity="0.110"/><rect x="478.0" y="478.0" width="68" height="68" rx="11.3" fill="#ffffff" opacity="0.110"/><rect x="558.0" y="478.0" width="68" height="68" rx="11.3" fill="#ffffff" opacity="0.110"/><rect x="638.0" y="478.0" width="68" height="68" rx="11.3" fill="#ffffff" opacity="0.110"/><rect x="718.0" y="478.0" width="68" height="68" rx="11.3" fill="#ffffff" opacity="0.110"/><rect x="798.0" y="478.0" width="68" height="68" rx="11.3" fill="#ffffff" opacity="0.061"/><rect x="878.0" y="478.0" width="68" height="68" rx="11.3" fill="#ffffff" opacity="0.039"/><rect x="958.0" y="478.0" width="68" height="68" rx="11.3" fill="#ffffff" opacity="0.018"/><rect x="-2.0" y="558.0" width="68" height="68" rx="11.3" fill="#ffffff" opacity="0.016"/><rect x="78.0" y="558.0" width="68" height="68" rx="11.3" fill="#ffffff" opacity="0.037"/><rect x="158.0" y="558.0" width="68" height="68" rx="11.3" fill="#ffffff" opacity="0.059"/><rect x="238.0" y="558.0" width="68" height="68" rx="11.3" fill="#ffffff" opacity="0.110"/><rect x="398.0" y="558.0" width="68" height="68" rx="11.3" fill="#ffffff" opacity="0.110"/><rect x="478.0" y="558.0" width="68" height="68" rx="11.3" fill="#ffffff" opacity="0.110"/><rect x="558.0" y="558.0" width="68" height="68" rx="11.3" fill="#ffffff" opacity="0.110"/><rect x="718.0" y="558.0" width="68" height="68" rx="11.3" fill="#ffffff" opacity="0.110"/><rect x="798.0" y="558.0" width="68" height="68" rx="11.3" fill="#ffffff" opacity="0.059"/><rect x="878.0" y="558.0" width="68" height="68" rx="11.3" fill="#ffffff" opacity="0.037"/><rect x="958.0" y="558.0" width="68" height="68" rx="11.3" fill="#ffffff" opacity="0.016"/><rect x="-2.0" y="638.0" width="68" height="68" rx="11.3" fill="#ffffff" opacity="0.010"/><rect x="78.0" y="638.0" width="68" height="68" rx="11.3" fill="#ffffff" opacity="0.031"/><rect x="158.0" y="638.0" width="68" height="68" rx="11.3" fill="#ffffff" opacity="0.051"/><rect x="238.0" y="638.0" width="68" height="68" rx="11.3" fill="#ffffff" opacity="0.110"/><rect x="318.0" y="638.0" width="68" height="68" rx="11.3" fill="#ffffff" opacity="0.110"/><rect x="638.0" y="638.0" width="68" height="68" rx="11.3" fill="#ffffff" opacity="0.110"/><rect x="718.0" y="638.0" width="68" height="68" rx="11.3" fill="#ffffff" opacity="0.110"/><rect x="798.0" y="638.0" width="68" height="68" rx="11.3" fill="#ffffff" opacity="0.051"/><rect x="878.0" y="638.0" width="68" height="68" rx="11.3" fill="#ffffff" opacity="0.031"/><rect x="958.0" y="638.0" width="68" height="68" rx="11.3" fill="#ffffff" opacity="0.010"/><rect x="78.0" y="718.0" width="68" height="68" rx="11.3" fill="#ffffff" opacity="0.021"/><rect x="158.0" y="718.0" width="68" height="68" rx="11.3" fill="#ffffff" opacity="0.039"/><rect x="238.0" y="718.0" width="68" height="68" rx="11.3" fill="#ffffff" opacity="0.110"/><rect x="318.0" y="718.0" width="68" height="68" rx="11.3" fill="#ffffff" opacity="0.110"/><rect x="398.0" y="718.0" width="68" height="68" rx="11.3" fill="#ffffff" opacity="0.110"/><rect x="478.0" y="718.0" width="68" height="68" rx="11.3" fill="#ffffff" opacity="0.110"/><rect x="558.0" y="718.0" width="68" height="68" rx="11.3" fill="#ffffff" opacity="0.110"/><rect x="638.0" y="718.0" width="68" height="68" rx="11.3" fill="#ffffff" opacity="0.110"/><rect x="718.0" y="718.0" width="68" height="68" rx="11.3" fill="#ffffff" opacity="0.110"/><rect x="798.0" y="718.0" width="68" height="68" rx="11.3" fill="#ffffff" opacity="0.039"/><rect x="878.0" y="718.0" width="68" height="68" rx="11.3" fill="#ffffff" opacity="0.021"/><rect x="78.0" y="798.0" width="68" height="68" rx="11.3" fill="#ffffff" opacity="0.009"/><rect x="158.0" y="798.0" width="68" height="68" rx="11.3" fill="#ffffff" opacity="0.025"/><rect x="238.0" y="798.0" width="68" height="68" rx="11.3" fill="#ffffff" opacity="0.039"/><rect x="318.0" y="798.0" width="68" height="68" rx="11.3" fill="#ffffff" opacity="0.051"/><rect x="398.0" y="798.0" width="68" height="68" rx="11.3" fill="#ffffff" opacity="0.059"/><rect x="478.0" y="798.0" width="68" height="68" rx="11.3" fill="#ffffff" opacity="0.061"/><rect x="558.0" y="798.0" width="68" height="68" rx="11.3" fill="#ffffff" opacity="0.059"/><rect x="638.0" y="798.0" width="68" height="68" rx="11.3" fill="#ffffff" opacity="0.051"/><rect x="718.0" y="798.0" width="68" height="68" rx="11.3" fill="#ffffff" opacity="0.039"/><rect x="798.0" y="798.0" width="68" height="68" rx="11.3" fill="#ffffff" opacity="0.025"/><rect x="878.0" y="798.0" width="68" height="68" rx="11.3" fill="#ffffff" opacity="0.009"/><rect x="158.0" y="878.0" width="68" height="68" rx="11.3" fill="#ffffff" opacity="0.009"/><rect x="238.0" y="878.0" width="68" height="68" rx="11.3" fill="#ffffff" opacity="0.021"/><rect x="318.0" y="878.0" width="68" height="68" rx="11.3" fill="#ffffff" opacity="0.031"/><rect x="398.0" y="878.0" width="68" height="68" rx="11.3" fill="#ffffff" opacity="0.037"/><rect x="478.0" y="878.0" width="68" height="68" rx="11.3" fill="#ffffff" opacity="0.039"/><rect x="558.0" y="878.0" width="68" height="68" rx="11.3" fill="#ffffff" opacity="0.037"/><rect x="638.0" y="878.0" width="68" height="68" rx="11.3" fill="#ffffff" opacity="0.031"/><rect x="718.0" y="878.0" width="68" height="68" rx="11.3" fill="#ffffff" opacity="0.021"/><rect x="798.0" y="878.0" width="68" height="68" rx="11.3" fill="#ffffff" opacity="0.009"/><rect x="318.0" y="958.0" width="68" height="68" rx="11.3" fill="#ffffff" opacity="0.010"/><rect x="398.0" y="958.0" width="68" height="68" rx="11.3" fill="#ffffff" opacity="0.016"/><rect x="478.0" y="958.0" width="68" height="68" rx="11.3" fill="#ffffff" opacity="0.018"/><rect x="558.0" y="958.0" width="68" height="68" rx="11.3" fill="#ffffff" opacity="0.016"/><rect x="638.0" y="958.0" width="68" height="68" rx="11.3" fill="#ffffff" opacity="0.010"/>
<g filter="url(#bloomWide)" opacity="0.35"><rect x="398.0" y="318.0" width="68" height="68" rx="11.3" fill="url(#phosphor)" opacity="1.000"/><rect x="398.0" y="398.0" width="68" height="68" rx="11.3" fill="url(#phosphor)" opacity="1.000"/><rect x="558.0" y="398.0" width="68" height="68" rx="11.3" fill="url(#phosphor)" opacity="1.000"/><rect x="638.0" y="398.0" width="68" height="68" rx="11.3" fill="url(#phosphor)" opacity="1.000"/><rect x="318.0" y="558.0" width="68" height="68" rx="11.3" fill="url(#phosphor)" opacity="1.000"/><rect x="638.0" y="558.0" width="68" height="68" rx="11.3" fill="url(#phosphor)" opacity="1.000"/><rect x="398.0" y="638.0" width="68" height="68" rx="11.3" fill="url(#phosphor)" opacity="1.000"/><rect x="478.0" y="638.0" width="68" height="68" rx="11.3" fill="url(#phosphor)" opacity="1.000"/><rect x="558.0" y="638.0" width="68" height="68" rx="11.3" fill="url(#phosphor)" opacity="1.000"/></g>
<g filter="url(#bloomTight)" opacity="0.6"><rect x="398.0" y="318.0" width="68" height="68" rx="11.3" fill="url(#phosphor)" opacity="1.000"/><rect x="398.0" y="398.0" width="68" height="68" rx="11.3" fill="url(#phosphor)" opacity="1.000"/><rect x="558.0" y="398.0" width="68" height="68" rx="11.3" fill="url(#phosphor)" opacity="1.000"/><rect x="638.0" y="398.0" width="68" height="68" rx="11.3" fill="url(#phosphor)" opacity="1.000"/><rect x="318.0" y="558.0" width="68" height="68" rx="11.3" fill="url(#phosphor)" opacity="1.000"/><rect x="638.0" y="558.0" width="68" height="68" rx="11.3" fill="url(#phosphor)" opacity="1.000"/><rect x="398.0" y="638.0" width="68" height="68" rx="11.3" fill="url(#phosphor)" opacity="1.000"/><rect x="478.0" y="638.0" width="68" height="68" rx="11.3" fill="url(#phosphor)" opacity="1.000"/><rect x="558.0" y="638.0" width="68" height="68" rx="11.3" fill="url(#phosphor)" opacity="1.000"/></g>
<rect x="398.0" y="318.0" width="68" height="68" rx="11.3" fill="url(#phosphor)" opacity="1.000"/><rect x="398.0" y="398.0" width="68" height="68" rx="11.3" fill="url(#phosphor)" opacity="1.000"/><rect x="558.0" y="398.0" width="68" height="68" rx="11.3" fill="url(#phosphor)" opacity="1.000"/><rect x="638.0" y="398.0" width="68" height="68" rx="11.3" fill="url(#phosphor)" opacity="1.000"/><rect x="318.0" y="558.0" width="68" height="68" rx="11.3" fill="url(#phosphor)" opacity="1.000"/><rect x="638.0" y="558.0" width="68" height="68" rx="11.3" fill="url(#phosphor)" opacity="1.000"/><rect x="398.0" y="638.0" width="68" height="68" rx="11.3" fill="url(#phosphor)" opacity="1.000"/><rect x="478.0" y="638.0" width="68" height="68" rx="11.3" fill="url(#phosphor)" opacity="1.000"/><rect x="558.0" y="638.0" width="68" height="68" rx="11.3" fill="url(#phosphor)" opacity="1.000"/>
<rect width="1024" height="1024" fill="url(#scan)"/>
<rect width="1024" height="1024" fill="url(#vignette)"/>
</svg>